<?xml version="1.0" encoding="iso-8859-1"?>
<!-- Generator: Adobe Illustrator 19.0.0, SVG Export Plug-In . SVG Version: 6.00 Build 0)  -->
<svg version="1.1" id="Layer_1" xmlns="http://www.w3.org/2000/svg" xmlns:xlink="http://www.w3.org/1999/xlink" x="0px" y="0px"
	 viewBox="0 0 512.016 512.016" style="enable-background:new 0 0 512.016 512.016;" xml:space="preserve">
<g>
	<g>
		<path d="M266.683,0.008c-135.275,0-245.333,110.059-245.333,245.333c0,43.669,11.797,86.571,34.155,124.416L0.869,497.16
			c-1.728,3.989-0.832,8.64,2.261,11.733c2.048,2.027,4.779,3.115,7.552,3.115c1.408,0,2.859-0.277,4.203-0.875l127.403-54.592
			c37.824,22.357,80.704,34.133,124.395,34.133c135.275,0,245.333-110.059,245.333-245.333S401.957,0.008,266.683,0.008z
			 M266.683,469.341c-41.557,0-82.325-11.691-117.931-33.813c-2.965-1.835-6.613-2.133-9.835-0.747L30.992,481.032l46.272-107.947
			c1.387-3.2,1.088-6.869-0.747-9.835c-22.123-35.584-33.835-76.352-33.835-117.909c0-123.52,100.48-224,224-224s224,100.48,224,224
			S390.203,469.341,266.683,469.341z"/>
	</g>
</g>
<g>
</g>
<g>
</g>
<g>
</g>
<g>
</g>
<g>
</g>
<g>
</g>
<g>
</g>
<g>
</g>
<g>
</g>
<g>
</g>
<g>
</g>
<g>
</g>
<g>
</g>
<g>
</g>
<g>
</g>
</svg>
